# xmcd CD database file
# Copyright (C) 1993-1998 Ti Kan
#
# Track frame offsets:
#	182
#	19817
#	37157
#
# Disc length: 755 seconds
#
# Revision: 1
# Processed by: cddbd v1.4b41PL1 Copyright (c) Steve Scherf et al.
# Submitted via: CDValet v3.31 - Copyright (c) 1997 Greg Leichner
#
DISCID=2002f103
DTITLE=Trisha Yearwood - Walkaway Joe [CD single)
DYEAR=1900
DGENRE=
TTITLE0=Walkaway Joe (Hugh Padgham mix)
TTITLE1=The Nigtingale
TTITLE2=Walkaway Joe
EXTD=
EXTT0=
EXTT1=
EXTT2=
PLAYORDER=
